<svg xmlns="http://www.w3.org/2000/svg" viewBox="0 0 120 180">
  <rect width="120" height="180" rx="8" fill="#1C150A"/>
  <rect x="6" y="6" width="108" height="168" rx="6" fill="none" stroke="#8B2010" stroke-width="2"/>
  <rect x="12" y="12" width="96" height="156" rx="4" fill="none" stroke="#8B2010" stroke-width="0.5" opacity="0.5"/>
  <path d="M 36 128 L 36 78 Q 36 52 60 52 Q 84 52 84 78 L 84 128" fill="none" stroke="#8B2010" stroke-width="2"/>
  <path d="M 48 128 L 48 88 Q 48 72 60 72 Q 72 72 72 88 L 72 128" fill="#8B2010" opacity="0.15"/>
  <rect x="48" y="104" width="24" height="24" fill="none" stroke="#8B2010" stroke-width="1.5"/>
  <rect x="55" y="78" width="10" height="10" rx="5" fill="none" stroke="#8B2010" stroke-width="1"/>
  <line x1="36" y1="128" x2="84" y2="128" stroke="#8B2010" stroke-width="2"/>
  <line x1="22" y1="128" x2="36" y2="128" stroke="#8B2010" stroke-width="1" opacity="0.4"/>
  <line x1="84" y1="128" x2="98" y2="128" stroke="#8B2010" stroke-width="1" opacity="0.4"/>
</svg>
