<svg xmlns="http://www.w3.org/2000/svg" viewBox="0 0 120 180">
  <rect width="120" height="180" rx="8" fill="#1C150A"/>
  <rect x="6" y="6" width="108" height="168" rx="6" fill="none" stroke="#9A8E72" stroke-width="2"/>
  <rect x="12" y="12" width="96" height="156" rx="4" fill="none" stroke="#9A8E72" stroke-width="0.5" opacity="0.5"/>
  <path d="M 60 56 Q 38 56 38 84 Q 38 100 46 110 L 46 124 Q 46 130 52 130 L 68 130 Q 74 130 74 124 L 74 110 Q 82 100 82 84 Q 82 56 60 56 Z" fill="#9A8E72" opacity="0.2" stroke="#9A8E72" stroke-width="2"/>
  <ellipse cx="50" cy="86" rx="5" ry="6" fill="#1C150A" stroke="#9A8E72" stroke-width="1.2"/>
  <ellipse cx="70" cy="86" rx="5" ry="6" fill="#1C150A" stroke="#9A8E72" stroke-width="1.2"/>
  <path d="M 56 102 L 60 110 L 64 102 Z" fill="#1C150A" stroke="#9A8E72" stroke-width="1"/>
  <line x1="50" y1="120" x2="54" y2="120" stroke="#1C150A" stroke-width="2"/>
  <line x1="58" y1="120" x2="62" y2="120" stroke="#1C150A" stroke-width="2"/>
  <line x1="66" y1="120" x2="70" y2="120" stroke="#1C150A" stroke-width="2"/>
  <line x1="22" y1="146" x2="98" y2="146" stroke="#9A8E72" stroke-width="1" opacity="0.4"/>
</svg>
