<svg xmlns="http://www.w3.org/2000/svg" viewBox="0 0 120 180">
  <rect width="120" height="180" rx="8" fill="#1C150A"/>
  <rect x="6" y="6" width="108" height="168" rx="6" fill="none" stroke="#7A6A4A" stroke-width="2"/>
  <rect x="12" y="12" width="96" height="156" rx="4" fill="none" stroke="#7A6A4A" stroke-width="0.5" opacity="0.5"/>
  <path d="M 38 138 L 38 60 Q 38 42 60 42 Q 82 42 82 60 L 82 138 Z" fill="#7A6A4A" opacity="0.18" stroke="#7A6A4A" stroke-width="2"/>
  <line x1="60" y1="42" x2="60" y2="138" stroke="#7A6A4A" stroke-width="1.5" opacity="0.7"/>
  <line x1="38" y1="74" x2="82" y2="74" stroke="#7A6A4A" stroke-width="1.5"/>
  <line x1="38" y1="106" x2="82" y2="106" stroke="#7A6A4A" stroke-width="1.5"/>
  <circle cx="48" cy="74" r="2" fill="#7A6A4A"/>
  <circle cx="72" cy="74" r="2" fill="#7A6A4A"/>
  <circle cx="48" cy="106" r="2" fill="#7A6A4A"/>
  <circle cx="72" cy="106" r="2" fill="#7A6A4A"/>
  <circle cx="52" cy="92" r="2.5" fill="#7A6A4A"/>
  <circle cx="68" cy="92" r="2.5" fill="#7A6A4A"/>
  <line x1="22" y1="138" x2="98" y2="138" stroke="#7A6A4A" stroke-width="1" opacity="0.5"/>
</svg>
