<svg xmlns="http://www.w3.org/2000/svg" viewBox="0 0 120 180">
  <rect width="120" height="180" rx="8" fill="#1C150A"/>
  <rect x="6" y="6" width="108" height="168" rx="6" fill="none" stroke="#A03A20" stroke-width="2"/>
  <rect x="12" y="12" width="96" height="156" rx="4" fill="none" stroke="#A03A20" stroke-width="0.5" opacity="0.5"/>
  <ellipse cx="60" cy="90" rx="38" ry="22" fill="none" stroke="#A03A20" stroke-width="2"/>
  <ellipse cx="60" cy="90" rx="26" ry="14" fill="#A03A20" opacity="0.2"/>
  <ellipse cx="60" cy="90" rx="14" ry="22" fill="#1C150A" stroke="#A03A20" stroke-width="2"/>
  <ellipse cx="60" cy="90" rx="6" ry="18" fill="#A03A20" opacity="0.7"/>
  <ellipse cx="60" cy="90" rx="2" ry="14" fill="#1C150A"/>
  <path d="M 44 78 L 38 70 M 76 78 L 82 70 M 44 102 L 38 110 M 76 102 L 82 110" stroke="#A03A20" stroke-width="1.2" opacity="0.6"/>
  <path d="M 22 56 Q 30 60 38 58 M 82 58 Q 90 60 98 56 M 22 124 Q 30 120 38 122 M 82 122 Q 90 120 98 124" fill="none" stroke="#A03A20" stroke-width="1" opacity="0.4"/>
</svg>
